<?xml version="1.0" encoding="utf-8"?>
<!-- Generator: Adobe Illustrator 27.4.0, SVG Export Plug-In . SVG Version: 6.00 Build 0)  -->
<svg version="1.1" id="Warstwa_1" xmlns="http://www.w3.org/2000/svg" xmlns:xlink="http://www.w3.org/1999/xlink" x="0px" y="0px"
	 viewBox="0 0 278 45" style="enable-background:new 0 0 278 45;" xml:space="preserve">
<style type="text/css">
	.st0{fill:#FFFFFF;}
	.st1{fill:#6C5CE7;}
</style>
<g>
	<path class="st1" d="M83.6,13.7c1.6,1,2.9,2.5,3.8,4.4c0.9,1.9,1.4,4,1.4,6.4c0,2.3-0.5,4.5-1.5,6.3c-1,1.9-2.4,3.3-4.1,4.4
		c-1.8,1.1-3.8,1.6-6,1.6c-1.2,0-2.3-0.2-3.3-0.7c-1-0.5-2-1.1-2.8-1.9v10.6h-5.1V12.5h3.4c1.1,0,1.7,0.7,1.7,2.2v0.3
		c0.9-0.9,2-1.6,3.1-2.2c1.2-0.5,2.5-0.8,3.9-0.8C80.2,12.1,82,12.6,83.6,13.7z M80.4,30.8c1-0.6,1.9-1.5,2.5-2.6
		c0.6-1.1,0.9-2.4,0.9-3.8c0-1.4-0.3-2.6-0.9-3.7c-0.6-1.1-1.4-2-2.4-2.6c-1-0.6-2.2-0.9-3.5-0.9c-1.3,0-2.4,0.3-3.4,0.9
		s-1.8,1.4-2.6,2.4v8.3c0.3,0.4,0.7,0.9,1.3,1.3c0.6,0.4,1.3,0.8,2.1,1.1c0.8,0.3,1.6,0.5,2.5,0.5C78.2,31.7,79.4,31.4,80.4,30.8z"
		/>
	<path class="st1" d="M106.7,12.3c0.5,0.1,1.2,0.4,1.9,0.7l-0.5,2.3c-0.1,0.6-0.4,1.1-0.9,1.5c-0.5,0.4-1,0.5-1.6,0.5
		c-0.1,0-0.3,0-0.5,0c-0.4-0.1-0.9-0.1-1.4-0.1c-1.2,0-2.2,0.3-3.2,1c-1,0.7-1.8,1.6-2.4,2.8v15.5H93V12.5h2.8
		c0.8,0,1.4,0.2,1.7,0.7c0.3,0.5,0.5,1,0.5,1.7v0.8c0.8-1.1,1.8-2,2.9-2.6c1.1-0.6,2.3-1,3.6-1C105.4,12.1,106.1,12.2,106.7,12.3z"
		/>
	<path class="st1" d="M127.3,13.6c1.8,1,3.2,2.3,4.2,4.1c1,1.8,1.5,3.8,1.5,6.1c0,0.7-0.2,1.4-0.7,1.9c-0.4,0.5-1,0.7-1.7,0.7h-16.5
		c0.3,1.1,0.7,2,1.4,2.9c0.7,0.8,1.5,1.5,2.5,1.9c1,0.5,2.1,0.7,3.3,0.7c1.2,0,2.4-0.3,3.6-1c0.5-0.3,1-0.4,1.5-0.4
		c0.5,0,0.9,0.1,1.3,0.3c0.4,0.2,0.7,0.5,1,0.9l1.2,1.7c-1.1,1.1-2.4,1.9-3.9,2.5c-1.5,0.6-3,0.9-4.7,0.9c-2.4,0-4.5-0.5-6.4-1.6
		c-1.9-1.1-3.4-2.5-4.4-4.4c-1.1-1.9-1.6-4-1.6-6.3c0-2.3,0.5-4.5,1.6-6.3c1-1.9,2.5-3.3,4.3-4.4c1.8-1.1,3.9-1.6,6.3-1.6
		C123.5,12.1,125.5,12.6,127.3,13.6z M127.9,22.1c-0.4-1.5-1.2-2.8-2.4-3.6c-1.2-0.9-2.6-1.3-4.3-1.3c-1.2,0-2.3,0.2-3.3,0.7
		c-1,0.5-1.8,1.2-2.5,2.1c-0.7,0.9-1.1,1.9-1.3,3h0.1c0.4-0.6,1.1-0.9,2.1-0.9H127.9z"/>
	<path class="st1" d="M137.8,35.8c-1.4-0.6-2.7-1.5-3.8-2.5l1-1.7c0.2-0.4,0.6-0.7,1-0.9c0.4-0.2,0.8-0.3,1.3-0.3
		c0.5,0,1,0.1,1.4,0.3c0.8,0.4,1.5,0.7,2.2,1c0.6,0.2,1.3,0.3,2.1,0.3c1,0,1.8-0.2,2.4-0.7c0.6-0.5,0.9-1.1,0.9-2
		c0-0.6-0.3-1.2-0.9-1.6c-0.6-0.5-1.5-1-2.8-1.5c-1.8-0.7-3.2-1.4-4.2-2.1c-1-0.7-1.7-1.4-2-2.2c-0.4-0.8-0.6-1.8-0.6-2.9
		c0-1.4,0.3-2.6,0.9-3.6c0.6-1,1.5-1.8,2.6-2.4c1.1-0.6,2.5-0.9,4-0.9c1.2,0,2.5,0.2,3.8,0.7c1.3,0.5,2.3,1.1,3.2,1.9l-0.9,1.7
		c-0.2,0.4-0.5,0.7-0.9,1c-0.4,0.2-0.9,0.4-1.4,0.4c-0.4,0-0.8-0.1-1.2-0.3c-0.1-0.1-0.4-0.2-0.7-0.3c-0.3-0.1-0.6-0.2-0.9-0.3
		s-0.6-0.1-0.8-0.1c-0.8,0-1.5,0.2-1.9,0.5c-0.4,0.3-0.7,0.9-0.7,1.5c0,0.5,0.2,1,0.7,1.4c0.5,0.4,1.3,0.8,2.4,1.2
		c2.5,0.9,4.4,2,5.5,3.1c1.2,1.2,1.8,2.7,1.8,4.5c0,1.5-0.4,2.8-1.1,4c-0.7,1.1-1.7,2-3.1,2.7s-2.8,0.9-4.6,0.9
		C140.8,36.8,139.3,36.5,137.8,35.8z"/>
	<path class="st1" d="M171.6,13.6c1.8,1,3.2,2.3,4.2,4.1c1,1.8,1.5,3.8,1.5,6.1c0,0.7-0.2,1.4-0.7,1.9c-0.4,0.5-1,0.7-1.7,0.7h-16.5
		c0.3,1.1,0.7,2,1.4,2.9c0.7,0.8,1.5,1.5,2.5,1.9c1,0.5,2.1,0.7,3.3,0.7c1.2,0,2.4-0.3,3.6-1c0.5-0.3,1-0.4,1.5-0.4
		c0.5,0,0.9,0.1,1.3,0.3c0.4,0.2,0.7,0.5,1,0.9l1.2,1.7c-1.1,1.1-2.4,1.9-3.9,2.5c-1.5,0.6-3,0.9-4.7,0.9c-2.4,0-4.5-0.5-6.4-1.6
		s-3.4-2.5-4.4-4.4c-1.1-1.9-1.6-4-1.6-6.3c0-2.3,0.5-4.5,1.6-6.3c1-1.9,2.5-3.3,4.3-4.4s3.9-1.6,6.3-1.6
		C167.8,12.1,169.8,12.6,171.6,13.6z M172.2,22.1c-0.4-1.5-1.2-2.8-2.4-3.6c-1.2-0.9-2.6-1.3-4.3-1.3c-1.2,0-2.3,0.2-3.3,0.7
		c-1,0.5-1.8,1.2-2.5,2.1c-0.7,0.9-1.1,1.9-1.3,3h0.1c0.4-0.6,1.1-0.9,2.1-0.9H172.2z"/>
	<path class="st1" d="M199.5,14.8c1.4,1.8,2.1,4.3,2.1,7.5v14.1h-5.1V22.9c0-2-0.4-3.5-1.1-4.4c-0.8-0.9-1.9-1.4-3.4-1.4
		c-1,0-2.1,0.3-3.1,0.8c-1.1,0.5-2.1,1.2-3,2.1v16.5h-5.1V12.5h3.4c0.7,0,1.1,0.2,1.3,0.6c0.2,0.4,0.4,0.9,0.4,1.5V15
		c1-0.9,2.1-1.6,3.3-2.1c1.2-0.5,2.6-0.8,4-0.8C195.9,12.1,198,13,199.5,14.8z"/>
	<path class="st1" d="M223.9,34.2c-1.2,0.7-2.4,1.3-3.7,1.8c-1.3,0.5-2.7,0.7-4.1,0.7c-1.5,0-2.7-0.3-3.9-0.9
		c-1.1-0.6-2-1.5-2.6-2.7c-0.6-1.2-0.9-2.5-0.9-4.1V17.3h-4.2v-3.1c0-0.5,0.2-0.9,0.5-1.2c0.3-0.3,0.7-0.4,1.1-0.4h2.5l0.1-6.2
		c0-0.6,0.2-1.1,0.5-1.5c0.3-0.4,0.8-0.6,1.4-0.6h3.1v8.3h6.7v4.7h-6.7v10.7c0,1.3,0.3,2.2,0.9,2.9c0.6,0.7,1.5,1,2.5,1
		c0.4,0,0.9-0.1,1.3-0.2c0.4-0.1,0.8-0.3,1.3-0.6c0.4-0.2,0.9-0.3,1.3-0.3c0.4,0,0.8,0.1,1.1,0.3c0.3,0.2,0.5,0.5,0.7,0.8
		L223.9,34.2z"/>
	<path class="st1" d="M226.5,4c0.3-0.5,0.7-0.9,1.2-1.3c0.5-0.3,1.1-0.5,1.7-0.5c0.6,0,1.2,0.2,1.7,0.5c0.5,0.3,0.9,0.7,1.2,1.3
		c0.3,0.5,0.5,1.1,0.5,1.7c0,0.6-0.2,1.2-0.5,1.7c-0.3,0.5-0.7,0.9-1.2,1.3c-0.5,0.3-1.1,0.5-1.7,0.5c-0.6,0-1.2-0.2-1.7-0.5
		c-0.5-0.3-0.9-0.7-1.2-1.3c-0.3-0.5-0.5-1.1-0.5-1.7C226,5.1,226.2,4.6,226.5,4z M232,36.4h-5.1V12.5h5.1V36.4z"/>
	<path class="st1" d="M250.2,2.1c1.2,0.5,2.3,1.1,3.3,1.9l-0.8,1.9c-0.2,0.4-0.4,0.7-0.8,0.9c-0.4,0.2-0.8,0.3-1.2,0.3
		c-0.4,0-0.7-0.1-1.1-0.2c-0.8-0.4-1.6-0.6-2.4-0.6c-0.8,0-1.5,0.3-2,0.8c-0.5,0.5-0.7,1.3-0.7,2.3v3.1h7v4.7h-7v19.1h-5.1V17.3h-4
		v-3c0-0.5,0.2-1,0.5-1.3c0.3-0.3,0.8-0.5,1.3-0.5h2.1V8.8c0-1.4,0.3-2.7,0.8-3.8c0.5-1.1,1.3-2,2.4-2.6c1.1-0.6,2.3-1,3.8-1
		C247.8,1.4,249,1.6,250.2,2.1z"/>
	<path class="st1" d="M277,12.5l-13,30.2c-0.3,0.7-0.7,1.2-1.2,1.5c-0.6,0.3-1.2,0.5-1.9,0.5h-3.1l4.2-9.2l-9.9-23h3.2
		c0.7,0,1.4,0.2,2,0.5c0.6,0.4,1,0.9,1.2,1.5l5.6,14.2c0.1,0.3,0.2,0.6,0.2,1c0,0.4-0.1,1-0.3,1.8h0.1c0.2-0.5,0.5-1.3,0.9-2.4
		l5.8-14.6c0.3-0.7,0.7-1.2,1.2-1.5c0.5-0.4,1.2-0.5,2-0.5H277z"/>
</g>
<g>
	<path class="st1" d="M7.1,0.6L6.3,6.5h32l-2.4,16.9H23.2l1.4-10.8h-5.8l-1.5,10.8H3.9L0.7,44.7H20l2.4-15.5H41l4-28.6H7.1z
		 M14.8,38.8H7.5L9,29.3h7.4L14.8,38.8z"/>
</g>
</svg>
